<svg width="55" height="55" viewBox="0 0 55 55" fill="none" xmlns="http://www.w3.org/2000/svg">
<g filter="url(#filter0_d_20_15)">
<rect x="-21" y="-21" width="97" height="97" rx="48.5" fill="#5E9ED6"/>
</g>
<path fill-rule="evenodd" clip-rule="evenodd" d="M17.2342 9.50123C19.0032 9.35999 20.6825 8.66422 22.033 7.51298C23.5583 6.21386 25.4964 5.50037 27.5 5.50037C29.5036 5.50037 31.4417 6.21386 32.967 7.51298C34.3175 8.66422 35.9968 9.35999 37.7657 9.50123C39.7634 9.66089 41.6389 10.5269 43.056 11.944C44.4731 13.361 45.3391 15.2365 45.4987 17.2342C45.639 19.0025 46.3347 20.6827 47.487 22.033C48.7861 23.5583 49.4996 25.4964 49.4996 27.5C49.4996 29.5036 48.7861 31.4417 47.487 32.967C46.3357 34.3175 45.64 35.9968 45.4987 37.7657C45.3391 39.7634 44.4731 41.6389 43.056 43.056C41.6389 44.4731 39.7634 45.3391 37.7657 45.4987C35.9968 45.64 34.3175 46.3358 32.967 47.487C31.4417 48.7861 29.5036 49.4996 27.5 49.4996C25.4964 49.4996 23.5583 48.7861 22.033 47.487C20.6825 46.3358 19.0032 45.64 17.2342 45.4987C15.2365 45.3391 13.361 44.4731 11.944 43.056C10.5269 41.6389 9.66088 39.7634 9.50123 37.7657C9.35999 35.9968 8.66422 34.3175 7.51298 32.967C6.21386 31.4417 5.50037 29.5036 5.50037 27.5C5.50037 25.4964 6.21386 23.5583 7.51298 22.033C8.66422 20.6825 9.35999 19.0032 9.50123 17.2342C9.66088 15.2365 10.5269 13.361 11.944 11.944C13.361 10.5269 15.2365 9.66089 17.2342 9.50123ZM37.6942 23.9442C38.1952 23.4256 38.4724 22.7309 38.4661 22.0099C38.4598 21.2888 38.1706 20.5991 37.6607 20.0892C37.1509 19.5794 36.4611 19.2901 35.7401 19.2839C35.019 19.2776 34.3244 19.5548 33.8057 20.0557L24.75 29.1115L21.1942 25.5557C20.6756 25.0548 19.9809 24.7776 19.2599 24.7839C18.5388 24.7901 17.8491 25.0794 17.3392 25.5892C16.8294 26.0991 16.5401 26.7888 16.5339 27.5099C16.5276 28.2309 16.8048 28.9256 17.3057 29.4442L22.8057 34.9442C23.3214 35.4598 24.0208 35.7494 24.75 35.7494C25.4792 35.7494 26.1785 35.4598 26.6942 34.9442L37.6942 23.9442Z" fill="white"/>
<defs>
<filter id="filter0_d_20_15" x="-91" y="-87" width="237" height="237" filterUnits="userSpaceOnUse" color-interpolation-filters="sRGB">
<feFlood flood-opacity="0" result="BackgroundImageFix"/>
<feColorMatrix in="SourceAlpha" type="matrix" values="0 0 0 0 0 0 0 0 0 0 0 0 0 0 0 0 0 0 127 0" result="hardAlpha"/>
<feOffset dy="4"/>
<feGaussianBlur stdDeviation="35"/>
<feColorMatrix type="matrix" values="0 0 0 0 0.358333 0 0 0 0 0.358333 0 0 0 0 0.358333 0 0 0 0.05 0"/>
<feBlend mode="normal" in2="BackgroundImageFix" result="effect1_dropShadow_20_15"/>
<feBlend mode="normal" in="SourceGraphic" in2="effect1_dropShadow_20_15" result="shape"/>
</filter>
</defs>
</svg>
