<svg width="63" height="63" viewBox="0 0 63 63" fill="none" xmlns="http://www.w3.org/2000/svg">
<g clip-path="url(#clip0_9_244)">
<path d="M45.151 33.5949C46.3095 33.5949 47.2486 32.6558 47.2486 31.4973C47.2486 30.3388 46.3095 29.3997 45.151 29.3997C43.9925 29.3997 43.0533 30.3388 43.0533 31.4973C43.0533 32.6558 43.9925 33.5949 45.151 33.5949Z" fill="white"/>
<g filter="url(#filter0_d_9_244)">
<rect x="-245" y="-67" width="553" height="355" fill="white"/>
</g>
<g filter="url(#filter1_d_9_244)">
<rect x="-17" y="-17" width="97" height="97" rx="48.5" fill="#5E9ED6"/>
</g>
<path d="M31.5028 23.1013C30.3997 23.1005 29.3074 23.3172 28.2881 23.7388C27.2688 24.1604 26.3426 24.7787 25.5624 25.5584C24.7822 26.3382 24.1632 27.264 23.7409 28.283C23.3186 29.302 23.1013 30.3942 23.1013 31.4972C23.1013 33.7254 23.9865 35.8624 25.562 37.438C27.1376 39.0136 29.2746 39.8987 31.5028 39.8987C32.6058 39.8987 33.6981 39.6814 34.7171 39.2591C35.7361 38.8368 36.6619 38.2179 37.4416 37.4376C38.2213 36.6574 38.8396 35.7312 39.2612 34.7119C39.6828 33.6926 39.8995 32.6003 39.8988 31.4972C39.8988 29.2705 39.0142 27.1349 37.4396 25.5604C35.8651 23.9858 33.7295 23.1013 31.5028 23.1013ZM31.5028 36.2457C30.7749 36.2455 30.0569 36.0767 29.4051 35.7527C28.7532 35.4287 28.1853 34.9582 27.7457 34.3781C27.997 33.8718 28.3476 33.4213 28.7766 33.0534C29.2057 32.6855 29.7044 32.4077 30.2431 32.2366C29.8303 32.0132 29.4852 31.6827 29.2443 31.2799C29.0033 30.877 28.8754 30.4167 28.8739 29.9473C28.8739 29.6021 28.9419 29.2602 29.074 28.9413C29.2061 28.6223 29.3998 28.3325 29.6439 28.0884C29.888 27.8443 30.1778 27.6506 30.4967 27.5185C30.8157 27.3864 31.1575 27.3184 31.5028 27.3184C32.199 27.3199 32.8663 27.5975 33.3581 28.0903C33.85 28.5832 34.1262 29.251 34.1262 29.9473C34.1247 30.4167 33.9967 30.877 33.7558 31.2799C33.5149 31.6827 33.1698 32.0132 32.757 32.2366C33.296 32.4085 33.7951 32.6865 34.2249 33.0543C34.6548 33.4221 35.0067 33.8722 35.2599 34.3781C34.818 34.9542 34.249 35.4205 33.5974 35.7406C32.9457 36.0608 32.2288 36.2261 31.5028 36.2237V36.2457Z" fill="white"/>
<path d="M29.3997 17.8435C29.3997 17.5676 29.4541 17.2944 29.5598 17.0396C29.6656 16.7847 29.8206 16.5532 30.016 16.3584C30.2113 16.1635 30.4432 16.0091 30.6983 15.904C30.9535 15.7989 31.2268 15.7452 31.5027 15.7459C32.0591 15.7459 32.5926 15.9669 32.986 16.3603C33.3794 16.7537 33.6004 17.2872 33.6004 17.8435C33.6004 18.3999 33.3794 18.9334 32.986 19.3268C32.5926 19.7202 32.0591 19.9412 31.5027 19.9412C31.2268 19.9419 30.9535 19.8882 30.6983 19.7831C30.4432 19.678 30.2113 19.5236 30.016 19.3287C29.8206 19.1339 29.6656 18.9024 29.5598 18.6475C29.4541 18.3927 29.3997 18.1195 29.3997 17.8435Z" fill="white"/>
<path d="M17.8489 33.6004C17.2921 33.5989 16.7586 33.3767 16.3654 32.9825C15.9722 32.5882 15.7513 32.0541 15.7513 31.4973C15.7528 30.9414 15.9743 30.4087 16.3673 30.0156C16.7604 29.6226 17.2931 29.4011 17.8489 29.3997C18.4058 29.3997 18.9399 29.6205 19.3342 30.0137C19.7284 30.4069 19.9506 30.9404 19.9521 31.4973C19.9521 31.7735 19.8977 32.0469 19.792 32.3021C19.6863 32.5573 19.5314 32.7891 19.3361 32.9844C19.1408 33.1797 18.909 33.3346 18.6538 33.4403C18.3986 33.546 18.1251 33.6004 17.8489 33.6004Z" fill="white"/>
<path d="M31.5027 47.2486C31.2266 47.2486 30.9531 47.1942 30.6979 47.0885C30.4428 46.9829 30.2109 46.8279 30.0156 46.6327C29.8203 46.4374 29.6654 46.2055 29.5597 45.9504C29.4541 45.6952 29.3997 45.4217 29.3997 45.1455C29.4011 44.5887 29.6233 44.0552 30.0176 43.662C30.4118 43.2687 30.9459 43.0479 31.5027 43.0479C32.0586 43.0494 32.5913 43.2708 32.9844 43.6639C33.3775 44.057 33.5989 44.5897 33.6004 45.1455C33.6004 45.7024 33.3796 46.2365 32.9863 46.6307C32.5931 47.025 32.0596 47.2472 31.5027 47.2486Z" fill="white"/>
<path d="M17.7669 27.0555C18.4718 24.8778 19.6833 22.8984 21.3018 21.2798C22.9204 19.6613 24.8998 18.4498 27.0775 17.7449C27.2765 17.6812 27.4927 17.699 27.6786 17.7945C27.8644 17.89 28.0048 18.0554 28.0688 18.2543C28.1326 18.4533 28.1147 18.6694 28.0192 18.8553C27.9237 19.0412 27.7584 19.1815 27.5595 19.2456C25.6233 19.8738 23.8634 20.9517 22.424 22.3911C20.9846 23.8305 19.9067 25.5903 19.2785 27.5265C19.2133 27.7244 19.0725 27.8885 18.8868 27.9829C18.701 28.0773 18.4855 28.0944 18.2872 28.0304C18.1888 27.9988 18.0976 27.948 18.0189 27.8809C17.9402 27.8138 17.8756 27.7319 17.8288 27.6397C17.7819 27.5476 17.7538 27.447 17.746 27.344C17.7382 27.2409 17.7509 27.1373 17.7833 27.0391L17.7669 27.0555Z" fill="white"/>
<path d="M34.9532 18.2707C35.0173 18.0718 35.1576 17.9064 35.3435 17.8109C35.5294 17.7154 35.7455 17.6976 35.9445 17.7614C38.1223 18.4662 40.1017 19.6777 41.7202 21.2963C43.3388 22.9148 44.5502 24.8942 45.2551 27.072C45.3189 27.271 45.301 27.4871 45.2055 27.673C45.11 27.8589 44.9447 27.9992 44.7458 28.0633C44.5475 28.1273 44.3319 28.1102 44.1462 28.0158C43.9605 27.9214 43.8197 27.7573 43.7545 27.5594C43.1271 25.6228 42.0494 23.8625 40.6099 22.423C39.1704 20.9835 37.4101 19.9058 35.4735 19.2784C35.2756 19.2133 35.1115 19.0724 35.0171 18.8867C34.9227 18.701 34.9056 18.4854 34.9696 18.2871L34.9532 18.2707Z" fill="white"/>
<path d="M28.0524 44.7293C27.9883 44.9282 27.848 45.0935 27.6621 45.189C27.4762 45.2845 27.2601 45.3024 27.0611 45.2386C24.884 44.5326 22.9052 43.3207 21.2868 41.7023C19.6684 40.0839 18.4565 38.1051 17.7504 35.928C17.6882 35.729 17.7067 35.5135 17.802 35.328C17.8973 35.1425 18.0617 35.002 18.2598 34.9367C18.4588 34.873 18.675 34.8908 18.8608 34.9863C19.0467 35.0818 19.187 35.2471 19.2511 35.446C19.8801 37.3819 20.9583 39.1413 22.3976 40.5806C23.8368 42.0198 25.5963 43.098 27.5321 43.727C27.731 43.7911 27.8963 43.9314 27.9918 44.1173C28.0873 44.3032 28.1052 44.5193 28.0414 44.7183L28.0524 44.7293Z" fill="white"/>
<path d="M45.2387 35.9171C44.5334 38.0946 43.3218 40.0738 41.7033 41.6923C40.0848 43.3108 38.1056 44.5224 35.9281 45.2277C35.7291 45.2914 35.5129 45.2736 35.327 45.1781C35.1412 45.0826 35.0008 44.9172 34.9368 44.7183C34.9043 44.6202 34.8916 44.5166 34.8995 44.4135C34.9073 44.3104 34.9354 44.2099 34.9822 44.1177C35.0291 44.0256 35.0937 43.9436 35.1724 43.8766C35.251 43.8095 35.3422 43.7587 35.4406 43.727C37.3768 43.0988 39.1367 42.0209 40.5761 40.5815C42.0155 39.1422 43.0934 37.3823 43.7216 35.4461C43.7868 35.2467 43.9283 35.0813 44.115 34.9859C44.3017 34.8905 44.5186 34.8728 44.7184 34.9367C44.9154 35.0031 45.0786 35.1441 45.1728 35.3294C45.267 35.5148 45.2848 35.7297 45.2223 35.928L45.2387 35.9171Z" fill="white"/>
</g>
<defs>
<filter id="filter0_d_9_244" x="-315" y="-133" width="693" height="495" filterUnits="userSpaceOnUse" color-interpolation-filters="sRGB">
<feFlood flood-opacity="0" result="BackgroundImageFix"/>
<feColorMatrix in="SourceAlpha" type="matrix" values="0 0 0 0 0 0 0 0 0 0 0 0 0 0 0 0 0 0 127 0" result="hardAlpha"/>
<feOffset dy="4"/>
<feGaussianBlur stdDeviation="35"/>
<feColorMatrix type="matrix" values="0 0 0 0 0.358333 0 0 0 0 0.358333 0 0 0 0 0.358333 0 0 0 0.07 0"/>
<feBlend mode="normal" in2="BackgroundImageFix" result="effect1_dropShadow_9_244"/>
<feBlend mode="normal" in="SourceGraphic" in2="effect1_dropShadow_9_244" result="shape"/>
</filter>
<filter id="filter1_d_9_244" x="-87" y="-83" width="237" height="237" filterUnits="userSpaceOnUse" color-interpolation-filters="sRGB">
<feFlood flood-opacity="0" result="BackgroundImageFix"/>
<feColorMatrix in="SourceAlpha" type="matrix" values="0 0 0 0 0 0 0 0 0 0 0 0 0 0 0 0 0 0 127 0" result="hardAlpha"/>
<feOffset dy="4"/>
<feGaussianBlur stdDeviation="35"/>
<feColorMatrix type="matrix" values="0 0 0 0 0.358333 0 0 0 0 0.358333 0 0 0 0 0.358333 0 0 0 0.05 0"/>
<feBlend mode="normal" in2="BackgroundImageFix" result="effect1_dropShadow_9_244"/>
<feBlend mode="normal" in="SourceGraphic" in2="effect1_dropShadow_9_244" result="shape"/>
</filter>
<clipPath id="clip0_9_244">
<rect width="63" height="63" fill="white"/>
</clipPath>
</defs>
</svg>
