<svg width="194" height="38" viewBox="0 0 194 38" fill="none" xmlns="http://www.w3.org/2000/svg">
<g clip-path="url(#clip0_4_162)">
<path d="M12.8132 5.84799L17.5649 10.5134L24.8891 17.5604C29.3786 21.8914 31.7217 24.1343 31.8773 24.2567C32.5563 24.9398 33.4765 25.332 34.4416 25.3496C35.0403 25.3765 35.6365 25.2567 36.1778 25.0008C36.7192 24.7448 37.1892 24.3605 37.5466 23.8815C37.7837 23.5394 37.9584 23.1584 38.0627 22.7559C38.2079 22.3227 38.269 21.866 38.2429 21.4101V6.89199C38.2392 5.38954 37.7318 3.93132 36.801 2.74861C36.1758 1.91862 35.3641 1.24585 34.4309 0.784136C33.4977 0.322425 32.4688 0.0845968 31.4267 0.0896794H31.2711C29.7292 0.0980015 28.2359 0.627114 27.0355 1.59043C26.6939 1.86263 26.381 2.1687 26.1016 2.50392C25.0522 3.72181 24.4715 5.27116 24.463 6.87568V14.9504L23.5783 14.1348C23.4964 14.0124 18.1384 8.77609 12.8214 3.67843L12.8132 5.84799ZM33.6305 15.766C33.6305 17.748 33.6305 20.358 33.6305 23.5634H33.5486C33.0101 23.2092 32.5199 22.787 32.0903 22.3073C32.1414 22.218 32.1669 22.1164 32.1641 22.0137V6.92463C32.1615 6.83482 32.1421 6.74628 32.1067 6.66362C32.0455 6.53431 31.9512 6.4233 31.8333 6.34171C31.7154 6.26011 31.578 6.21079 31.4349 6.19871H31.3284C31.1421 6.2021 30.9638 6.27485 30.8287 6.40261C30.7006 6.52208 30.6145 6.67933 30.5829 6.85121C30.5829 8.90659 30.5829 10.7173 30.5829 12.2588V20.8718L29.0345 19.3548C29.1304 18.6549 29.1578 17.9474 29.1165 17.2423C29.1165 13.3599 29.1165 9.97778 29.1165 7.0959C29.1058 6.56369 29.2697 6.04254 29.5834 5.61147C29.7863 5.35174 30.0442 5.13964 30.3387 4.99023C30.6332 4.84082 30.9571 4.75773 31.2875 4.74689H31.4759C31.7051 4.74949 31.9323 4.79087 32.1477 4.86925C32.6059 5.03077 33.0002 5.33404 33.2729 5.73468C33.5457 6.13532 33.6825 6.61231 33.6633 7.0959L33.6305 15.766ZM26.0278 6.85121C26.045 5.57487 26.5285 4.34843 27.3878 3.40112C28.0978 2.60048 29.0351 2.03316 30.0759 1.77415C31.1166 1.51513 32.2118 1.5766 33.2167 1.95045C34.2217 2.3243 35.089 2.99292 35.7041 3.86795C36.3192 4.74297 36.6531 5.78322 36.6618 6.85121V18.7349V21.6222C36.6701 22.1391 36.4994 22.6431 36.1784 23.0495C35.9198 23.3572 35.565 23.5697 35.1707 23.6531C35.1707 17.786 35.1707 12.3648 35.1707 7.38953V7.06328C35.1742 6.79058 35.1578 6.51799 35.1216 6.24766C34.9991 5.60688 34.7175 5.00682 34.3023 4.50222C33.948 4.05659 33.4974 3.69614 32.984 3.44763C32.4706 3.19911 31.9075 3.06892 31.3366 3.06671H31.2875C30.4593 3.07347 29.6541 3.33878 28.9853 3.82525C28.754 4.00712 28.5474 4.21823 28.3709 4.45327C27.7453 5.1856 27.4231 6.12751 27.4697 7.08775V17.8295L25.9951 16.4103L26.0278 6.85121Z" fill="#3086C7"/>
<path d="M40.0208 27.6089H34.8758C33.6556 27.5299 32.4992 27.0377 31.5988 26.2142C31.4103 26.0347 29.2229 23.9467 25.0447 19.9257C21.6694 16.6632 15.8281 10.9538 12.7559 7.96045V10.1382C13.5342 10.8885 16.9423 14.2652 17.7206 15.0319C20.4077 17.6338 21.7595 18.9469 21.8168 18.9469C22.079 19.2242 24.8262 21.8968 30.0586 26.9645C31.4923 28.2858 32.7949 28.9628 33.991 28.9628H40.0043L40.0208 27.6089Z" fill="#3086C7"/>
<path d="M40.0207 30.7898H34.3678C33.8452 30.7692 33.3288 30.6702 32.8358 30.4962C32.3575 30.3446 31.9025 30.1278 31.484 29.8518C30.7185 29.3692 30.0096 28.8029 29.3704 28.1635L22.8818 21.9647C20.2192 19.4445 15.1071 14.4447 12.7886 12.218V14.3957C14.0502 15.6029 17.999 19.4771 19.3426 20.7739C23.1358 24.4116 25.0774 26.2305 25.0774 26.2468C27.3877 28.4571 28.6166 29.6316 28.7723 29.754C30.4927 31.3852 32.0493 32.2008 33.3847 32.2008H39.9388L40.0207 30.7898Z" fill="#3086C7"/>
<path d="M40.0207 33.7424H33.9582C32.9751 33.7406 32.0026 33.5408 31.099 33.1552C30.0935 32.6744 29.1634 32.0508 28.3381 31.3037C28.0104 31.0264 25.5281 28.6774 20.9648 24.2812C19.1051 22.5031 14.6401 18.1313 12.8459 16.394V18.5473C16.123 21.6793 22.3084 27.7312 26.2162 31.4586C28.7723 33.9055 31.058 35.1534 33.1226 35.1534H40.0535L40.0207 33.7424Z" fill="#3086C7"/>
<path d="M40.0208 36.4994H33.3111C31.8022 36.5369 30.3058 36.2183 28.9444 35.5695C28.3951 35.2907 27.8739 34.9602 27.3878 34.5826C26.9864 34.3624 24.5778 32.1358 20.1374 27.7966C18.7692 26.4916 14.5746 22.3564 12.8132 20.6599V22.5929C17.3191 27.0218 23.2915 32.9106 25.438 34.9823C25.9645 35.4855 26.5348 35.9413 27.142 36.3444C27.7096 36.7241 28.3201 37.0362 28.9608 37.2742C30.3289 37.7323 31.771 37.9315 33.2127 37.8615H40.0208V36.4994Z" fill="#3086C7"/>
<path d="M60.3219 18.4575C59.6945 16.741 58.7341 15.1641 57.4955 13.8166C57.1144 13.3808 56.6979 12.9771 56.2502 12.6095C56.2932 12.2822 56.315 11.9526 56.3157 11.6226C56.321 9.72412 55.8508 7.85432 54.9476 6.18234C54.6387 5.61189 54.2854 5.06646 53.8908 4.55108C53.4945 4.03475 53.0531 3.55436 52.5717 3.11558C52.0947 2.68093 51.5853 2.28286 51.0479 1.92477C49.1931 0.711305 47.0246 0.0596485 44.8052 0.0488281H35.3428C36.754 0.788436 37.9323 1.90199 38.7478 3.2665C39.5632 4.63101 39.9839 6.19336 39.9634 7.78096C39.9634 12.9194 39.9634 16.3124 39.9634 19.9175C39.9634 21.5487 39.9634 23.5552 39.9634 25.9449H46.5174C46.8766 25.9432 47.2332 25.8854 47.5743 25.7737C48.021 25.6328 48.4088 25.3498 48.6782 24.9682C48.9476 24.5865 49.0836 24.1273 49.0653 23.6612C49.0684 23.1275 48.9115 22.6049 48.6147 22.1604C49.099 22.0146 49.5703 21.8291 50.0238 21.6058C50.3138 22.131 50.4686 22.7194 50.4744 23.3186V23.4736C50.4675 24.3685 50.1491 25.2333 49.5733 25.9205C49.2027 26.4012 48.7316 26.796 48.1927 27.0777C47.6537 27.3593 47.0598 27.5211 46.4519 27.5517H39.9879C39.9879 28.0574 39.9879 28.3674 39.9879 28.8812H46.288C47.0417 28.9036 47.7923 28.7759 48.4957 28.5056C49.1992 28.2353 49.8412 27.8278 50.3843 27.307C50.9057 26.7961 51.3193 26.1866 51.6007 25.5142C51.882 24.8419 52.0256 24.1204 52.0228 23.392V23.2534C52.0188 22.3931 51.7871 21.5492 51.351 20.8065C51.7593 20.5275 52.153 20.2281 52.5308 19.9093C53.1671 20.9243 53.5022 22.0977 53.4975 23.2942V23.3594C53.496 24.1732 53.3575 24.981 53.0879 25.7492C52.5137 27.2966 51.4235 28.6009 49.9993 29.444C48.8687 30.0638 47.7463 30.7734 46.583 30.7734H40.0289V32.1845H46.4928C48.5317 32.1027 50.4796 31.3218 52.0065 29.9741C52.1269 29.8514 52.2555 29.737 52.3915 29.6316C52.822 29.2184 53.2115 28.765 53.5548 28.2776C54.5607 26.8425 55.0984 25.1339 55.095 23.3839C55.109 21.7482 54.6107 20.1489 53.6695 18.8082L54.0382 18.3759L54.5789 17.6174C55.8448 19.275 56.5272 21.3016 56.5205 23.3839C56.5245 25.8309 55.63 28.195 54.0054 30.0312C53.0565 31.1455 51.8808 32.0467 50.5561 32.6752C49.2314 33.3037 47.7879 33.6452 46.3208 33.6771L40.0453 33.7668V35.1778H45.9685C46.8203 35.137 47.6644 34.9974 48.4836 34.7619C49.0164 34.6747 49.5421 34.5493 50.0566 34.3867C50.7334 34.1547 51.3954 33.8824 52.0392 33.571C52.5877 33.2432 53.1182 32.8866 53.6286 32.5026C54.3244 31.9488 54.9588 31.3226 55.5211 30.6348C56.7688 29.073 57.589 27.2163 57.902 25.2452C58.215 23.2742 58.01 21.2561 57.307 19.3873C56.8476 18.1922 56.1792 17.0877 55.3327 16.1248C55.3818 15.9862 55.4064 15.9209 55.4228 15.9209C55.6188 15.4492 55.7803 14.964 55.9061 14.4691L56.4796 15.0563C57.1419 15.8369 57.7161 16.6875 58.1919 17.5929C59.0803 19.3155 59.557 21.2193 59.5846 23.1555V23.5307C59.5651 25.2448 59.1972 26.9372 58.5032 28.506C57.1891 31.5754 54.7441 34.0271 51.6706 35.3573C50.1025 36.0475 48.4118 36.4191 46.6977 36.4502L39.9716 36.5073V37.8694H46.9926C47.0417 37.8694 47.0745 37.8694 47.0745 37.8694C47.8532 37.9054 48.6334 37.8561 49.4012 37.7226C50.141 37.5768 50.8673 37.3694 51.5722 37.1027C52.4253 36.7921 53.2479 36.4044 54.03 35.9445C54.6876 35.5599 55.3074 35.1148 55.8815 34.615C56.3652 34.2301 56.8197 33.8103 57.2415 33.359C57.7413 32.8198 58.2039 32.2475 58.626 31.6462C60.2844 29.2456 61.1779 26.4034 61.1903 23.4899V23.2452C61.1823 21.6112 60.8884 19.9911 60.3219 18.4575ZM41.479 5.90503C41.4164 5.44644 41.3066 4.99547 41.1513 4.55924H44.7233C46.5872 4.57416 48.3706 5.31797 49.6887 6.6302C51.0067 7.94243 51.7539 9.71791 51.7689 11.5736V11.6226C51.7787 13.0373 51.3146 14.4149 50.4499 15.5376C50.1438 15.9383 49.795 16.3048 49.4094 16.6305C48.0979 17.6666 46.4712 18.2275 44.797 18.221H41.52V16.7528H44.797C45.9627 16.7493 47.1018 16.4062 48.074 15.7659C48.5285 15.4415 48.9317 15.0511 49.2701 14.6077C49.8964 13.7488 50.2373 12.7165 50.2451 11.6552V11.5573C50.2294 10.5181 49.9292 9.50286 49.3766 8.62105C48.9716 7.99613 48.4451 7.45816 47.8282 7.03875C46.9423 6.42454 45.8928 6.08668 44.8134 6.06815H41.4626C41.45 6.01471 41.4473 5.95945 41.4544 5.90503H41.479ZM44.4611 13.7269C44.8791 13.7406 45.2966 13.6883 45.6982 13.5719C45.9389 13.4793 46.1651 13.353 46.37 13.1967C46.6296 12.9858 46.838 12.7193 46.9798 12.4172C47.1217 12.115 47.1933 11.7848 47.1892 11.4513C47.1917 11.1544 47.1331 10.8602 47.0172 10.5867C46.8081 10.1229 46.459 9.73543 46.0186 9.47817C45.5781 9.22091 45.0681 9.10664 44.5594 9.15121H41.5118V7.60152H44.5103C45.1337 7.57465 45.7547 7.69344 46.3238 7.94837C46.8928 8.2033 47.394 8.5873 47.7873 9.06964C48.3649 9.757 48.6887 10.6205 48.7048 11.5165V11.6715C48.7074 11.8988 48.6854 12.1258 48.6393 12.3485C48.5003 12.9918 48.1724 13.5794 47.6972 14.0368C47.275 14.4431 46.7715 14.7563 46.2195 14.9558C45.6676 15.1554 45.0796 15.2369 44.4939 15.195H41.5446V13.7106L44.4611 13.7269ZM41.5528 12.1935V10.7417H44.8298C45.3541 10.8232 45.649 11.0679 45.649 11.4839C45.6559 11.5517 45.6559 11.62 45.649 11.6878C45.5741 11.8706 45.4397 12.023 45.2674 12.1206C45.095 12.2182 44.8948 12.2554 44.6987 12.2261L41.5528 12.1935ZM47.5006 23.6938C47.4991 23.8013 47.4739 23.9071 47.4268 24.0037C47.3121 24.2566 46.9107 24.3953 46.2717 24.3953H41.5528V22.764C43.7156 22.764 45.4033 22.764 46.5666 22.764C46.7245 22.7713 46.8811 22.7959 47.0336 22.8374C47.1863 22.9089 47.3132 23.0256 47.3968 23.1716C47.4803 23.3176 47.5166 23.4858 47.5006 23.653V23.6938ZM54.1447 15.0237C53.3639 16.9796 51.9705 18.6328 50.1713 19.738C49.5054 20.1219 48.8029 20.4388 48.074 20.6842C47.2026 20.9861 46.2921 21.1619 45.3705 21.2062H41.5528V19.7707H44.7069C46.325 19.7852 47.9175 19.3684 49.3193 18.5635C49.8809 18.2417 50.4009 17.8527 50.8677 17.4053C51.0561 17.2177 51.2609 17.022 51.4575 16.8018C52.6738 15.3485 53.3354 13.5142 53.3255 11.6226C53.3404 10.1129 52.944 8.62745 52.1785 7.32421C51.8979 6.81651 51.5628 6.34066 51.179 5.90503C50.3576 4.98441 49.3477 4.24964 48.2172 3.75019C47.0866 3.25075 45.8618 2.9982 44.625 3.00955H40.3976L40.1354 2.65883C39.8323 2.26293 39.4831 1.90426 39.095 1.59036H44.1907C44.8707 1.59036 45.2885 1.59036 45.4278 1.59036C46.2163 1.63336 46.9957 1.77868 47.7463 2.02264C48.312 2.20519 48.8603 2.4372 49.3848 2.71593C49.9631 2.99211 50.5121 3.32547 51.0234 3.71099C51.566 4.15777 52.0702 4.64884 52.5308 5.17911C54.036 6.97275 54.8597 9.23634 54.8575 11.5736C54.8173 12.7579 54.5677 13.9258 54.1201 15.0237H54.1447Z" fill="#01608C"/>
<path d="M6.98822 0C8.41486 0.0168399 9.80185 0.469532 10.9616 1.29684C11.3548 1.58539 11.7196 1.91038 12.0512 2.26744C12.6834 2.99046 13.1826 3.81876 13.5259 4.71432C13.7471 5.34149 13.8687 5.99918 13.8863 6.66366V31.1324C13.8759 32.7044 13.317 34.2239 12.3052 35.4308C11.9776 35.8107 11.6186 36.1626 11.232 36.4829C10.0191 37.4332 8.52341 37.9553 6.98002 37.9674H6.79161C5.20672 37.9544 3.67524 37.3953 2.45771 36.3851C2.09174 36.0866 1.76428 35.7441 1.48279 35.3655C1.22022 35.0629 0.984502 34.7381 0.778241 34.3949C0.264117 33.4433 -0.0166108 32.384 -0.0410156 31.3037V6.83495C-0.0146095 5.24604 0.564461 3.71541 1.5975 2.50396C1.92589 2.11919 2.2908 1.76685 2.68712 1.45181C3.87005 0.525528 5.32765 0.0150494 6.83256 0H6.98822ZM1.5975 31.2711C1.61711 32.3576 1.97416 33.4113 2.61962 34.2876C3.26508 35.1639 4.1673 35.8196 5.20225 36.1648C5.73174 36.335 6.28438 36.423 6.84076 36.4258H7.04558C8.23366 36.4106 9.38428 36.0097 10.3226 35.284C10.6855 34.9883 11.0127 34.6516 11.2975 34.2807C11.9795 33.3804 12.3502 32.2845 12.3543 31.1569V6.68813C12.3281 5.61948 11.964 4.5863 11.3139 3.73557C10.9419 3.24368 10.4906 2.8165 9.97848 2.47134C9.55107 2.18431 9.08491 1.95912 8.59393 1.80253C8.09455 1.63601 7.57219 1.54796 7.04558 1.54153H6.85711C5.59427 1.55854 4.38049 2.0309 3.44083 2.87101C3.04668 3.209 2.70687 3.60508 2.43316 4.0455C1.92061 4.87042 1.63784 5.8163 1.6139 6.786L1.5975 31.2711ZM9.95393 4.49409C10.5449 5.23731 10.8526 6.16482 10.8223 7.11226V30.8551C10.8659 31.6509 10.6597 32.4404 10.2324 33.1144C9.7394 33.8859 8.99217 34.4626 8.1188 34.7456C7.71461 34.8809 7.29167 34.9524 6.86531 34.9577C6.25049 34.9619 5.64413 34.8152 5.09974 34.5307C4.55535 34.2462 4.08969 33.8326 3.74395 33.3265C3.30357 32.6638 3.06984 31.8862 3.07215 31.0916V6.90835C3.06778 5.89014 3.46875 4.91166 4.18733 4.1871C4.9059 3.46254 5.88355 3.0509 6.90627 3.04228C7.4908 3.04302 8.06781 3.17376 8.59508 3.42494C9.12236 3.67612 9.58661 4.0414 9.95393 4.49409ZM4.66151 31.0835C4.65323 31.4827 4.75211 31.8768 4.94798 32.2253C5.14385 32.5737 5.42959 32.8637 5.77569 33.0655C6.1193 33.2624 6.50979 33.3639 6.90627 33.3591C7.27188 33.3541 7.63156 33.2663 7.95804 33.1024C8.28451 32.9385 8.56925 32.7027 8.7906 32.413C9.10544 31.9747 9.25878 31.4418 9.22478 30.9041V7.06332C9.25051 6.5596 9.111 6.0612 8.82725 5.64336C8.5435 5.22551 8.13093 4.91087 7.65182 4.74693C7.40239 4.67032 7.14274 4.63182 6.88171 4.63275C6.49914 4.632 6.12292 4.73005 5.78979 4.91733C5.45665 5.1046 5.17799 5.3747 4.98103 5.70123C4.76787 6.06786 4.65752 6.48475 4.66151 6.90835V31.0835ZM6.90627 6.11719C7.0793 6.12239 7.24622 6.18201 7.3831 6.28751C7.51998 6.39301 7.61978 6.53897 7.66817 6.70444C7.67402 6.77229 7.67402 6.84051 7.66817 6.90835V31.0835C7.6786 31.2593 7.63158 31.4338 7.53411 31.5809C7.43664 31.7279 7.29399 31.8395 7.12748 31.8991H6.88991C6.71956 31.8979 6.55381 31.8438 6.41578 31.7444C6.27776 31.645 6.17432 31.5052 6.11981 31.3445C6.10827 31.2661 6.10827 31.1864 6.11981 31.108V6.90835C6.11348 6.72421 6.16994 6.54337 6.28002 6.39526C6.39011 6.24716 6.54732 6.14052 6.72605 6.09272L6.90627 6.11719Z" fill="#01608C"/>
<path d="M72.709 37.7635V33.302H73.1924V37.7635H72.709Z" fill="#3086C7"/>
<path d="M75.2488 34.6887L75.5765 34.55C75.6911 34.5061 75.8088 34.4707 75.9287 34.444C76.0474 34.4164 76.1678 34.3973 76.2892 34.3869C76.4147 34.3785 76.5406 34.3785 76.6661 34.3869C76.9471 34.369 77.2282 34.4194 77.4853 34.5337C77.6696 34.6189 77.8176 34.7662 77.9032 34.9497C77.996 35.1573 78.0408 35.3831 78.0342 35.6103V37.7881H77.5509V35.6103C77.5619 35.5264 77.5619 35.4414 77.5509 35.3575C77.5315 35.2659 77.4924 35.1796 77.4362 35.1046C77.3681 35.0118 77.274 34.9409 77.1658 34.9007C77.0108 34.8461 76.8468 34.8212 76.6825 34.8273C76.5407 34.8155 76.3982 34.8155 76.2564 34.8273C76.1039 34.8482 75.9533 34.8809 75.8059 34.9252V37.7554H75.3225L75.2488 34.6887Z" fill="#3086C7"/>
<path d="M81.0654 37.8205C80.956 37.8254 80.8467 37.8085 80.744 37.7707C80.6412 37.7329 80.5472 37.6749 80.4674 37.6003C80.3831 37.5165 80.3182 37.4155 80.2771 37.3042C80.2361 37.1929 80.2199 37.0741 80.2297 36.9559V34.8679H79.6399V34.3949H80.2461V33.4487H80.7295V34.3949H81.5979V34.8353H80.7295V36.8417C80.7181 36.9879 80.7463 37.1344 80.8114 37.2659C80.8554 37.3167 80.9113 37.356 80.9742 37.3802C81.0371 37.4044 81.105 37.4127 81.1719 37.4045C81.2509 37.4125 81.3305 37.4125 81.4095 37.4045C81.4744 37.3931 81.5377 37.3739 81.5979 37.3474V37.8042C81.5179 37.8307 81.4356 37.8498 81.3521 37.8613C81.2554 37.8569 81.1594 37.8432 81.0654 37.8205Z" fill="#3086C7"/>
<path d="M84.7767 37.8612C84.4915 37.8656 84.2097 37.7983 83.9575 37.6655C83.7225 37.5301 83.5362 37.3247 83.4249 37.0782C83.288 36.7677 83.2236 36.4302 83.2365 36.0913C83.2 35.6253 83.3403 35.1625 83.6298 34.7945C83.8864 34.5528 84.2167 34.4032 84.5683 34.3692C84.9199 34.3352 85.2728 34.4189 85.5714 34.6069C85.7913 34.7673 85.9548 34.9928 86.0384 35.2512C86.1385 35.5506 86.1829 35.8657 86.1694 36.181H83.4741V35.7324H85.8254L85.6369 35.8058C85.6449 35.5336 85.5548 35.2674 85.383 35.0555C85.2894 34.9672 85.1785 34.8992 85.0573 34.8556C84.936 34.8121 84.807 34.7941 84.6784 34.8026C84.4878 34.7949 84.2985 34.8371 84.1295 34.925C83.9711 35.0209 83.8543 35.1721 83.8018 35.3491C83.7203 35.613 83.6843 35.8888 83.6953 36.1647C83.67 36.497 83.7724 36.8265 83.982 37.0864C84.0859 37.1971 84.2135 37.2832 84.3553 37.3382C84.4971 37.3933 84.6495 37.4159 84.8013 37.4045C84.9512 37.4175 85.102 37.4175 85.2519 37.4045C85.3838 37.3838 85.513 37.3482 85.6369 37.2984C85.7465 37.2627 85.8511 37.2133 85.9483 37.1516V37.6573C85.7776 37.7338 85.599 37.7912 85.4157 37.8286C85.2044 37.8609 84.9903 37.8718 84.7767 37.8612Z" fill="#3086C7"/>
<path d="M88.0127 37.7635V34.6885L88.324 34.5744L88.8811 34.4275C89.1052 34.3848 89.3329 34.363 89.5611 34.3623H89.6676H89.7741V34.7946H89.4382H89.1187L88.8074 34.8435L88.4961 34.8925V37.7308L88.0127 37.7635Z" fill="#3086C7"/>
<path d="M91.4863 34.6886L91.8223 34.5499C91.9369 34.506 92.0546 34.4706 92.1745 34.4439C92.2934 34.419 92.4138 34.4027 92.535 34.395C92.6605 34.3866 92.7864 34.3866 92.9119 34.395C93.1792 34.3835 93.4455 34.4338 93.6901 34.5418C93.8724 34.6297 94.0196 34.7763 94.108 34.9577C94.2008 35.1654 94.2456 35.3912 94.2391 35.6184V37.7961H93.7557V35.6184C93.7667 35.5345 93.7667 35.4495 93.7557 35.3655C93.7363 35.274 93.6972 35.1877 93.641 35.1127C93.5729 35.0199 93.4789 34.949 93.3707 34.9088C93.2156 34.8542 93.0516 34.8293 92.8873 34.8354C92.7455 34.8236 92.603 34.8236 92.4612 34.8354C92.3087 34.8563 92.1581 34.889 92.0107 34.9333V37.7635H91.5191L91.4863 34.6886Z" fill="#3086C7"/>
<path d="M97.4506 37.8613C97.2994 37.8639 97.1483 37.8502 97 37.8205C96.8535 37.7868 96.7127 37.7319 96.5822 37.6574C96.4553 37.58 96.3486 37.4738 96.2709 37.3474C96.1909 37.194 96.1514 37.0228 96.1562 36.8499C96.1442 36.6169 96.1982 36.3852 96.3118 36.1811C96.4172 36.0177 96.5722 35.892 96.7543 35.8222C96.9578 35.7431 97.1748 35.7044 97.3933 35.708C97.5515 35.6982 97.7102 35.6982 97.8684 35.708C97.9915 35.7288 98.1123 35.7616 98.2289 35.8059C98.3301 35.8432 98.4263 35.8925 98.5156 35.9527L98.6139 36.3932C98.475 36.3047 98.323 36.2386 98.1634 36.1974C97.9553 36.1402 97.7402 36.1128 97.5244 36.1159C97.2952 36.1005 97.0667 36.1545 96.8689 36.2708C96.7933 36.3236 96.7325 36.3948 96.6924 36.4776C96.6522 36.5604 96.634 36.6521 96.6396 36.7439C96.6341 36.8873 96.6839 37.0273 96.7788 37.1354C96.8733 37.2383 96.9956 37.3119 97.1311 37.3474C97.2722 37.3875 97.4186 37.4068 97.5653 37.4045C97.7857 37.4106 98.0059 37.3886 98.2207 37.3393C98.2887 37.3273 98.3498 37.2907 98.3922 37.2365C98.4346 37.1822 98.4552 37.1142 98.4501 37.0457V35.5204C98.4598 35.414 98.4441 35.3068 98.4043 35.2075C98.3644 35.1083 98.3015 35.0199 98.2207 34.9495C98.0291 34.8171 97.7979 34.7539 97.5653 34.7701C97.3746 34.7714 97.1847 34.796 97 34.8435C96.8126 34.8879 96.6367 34.9713 96.4839 35.0882V34.6069C96.656 34.5067 96.8446 34.4377 97.041 34.403C97.2644 34.355 97.4924 34.3304 97.721 34.3296C97.859 34.3287 97.9967 34.3451 98.1306 34.3786C98.2489 34.3994 98.3626 34.4408 98.4665 34.5009C98.5633 34.5558 98.6493 34.6276 98.7204 34.713C98.7925 34.8032 98.848 34.9053 98.8843 35.0148C98.9218 35.1419 98.9411 35.2737 98.9417 35.4063V37.0375C98.9488 37.1362 98.9334 37.2352 98.8965 37.327C98.8596 37.4189 98.8022 37.5012 98.7286 37.5677C98.5698 37.6919 98.3801 37.7708 98.1798 37.796C97.9386 37.8349 97.6949 37.8567 97.4506 37.8613Z" fill="#3086C7"/>
<path d="M101.981 37.8205C101.872 37.8254 101.762 37.8085 101.66 37.7707C101.557 37.7329 101.463 37.6749 101.383 37.6003C101.297 37.5172 101.231 37.4165 101.188 37.3052C101.146 37.1939 101.128 37.0747 101.137 36.9559V34.8679H100.556V34.3949H101.137V33.4487H101.621V34.3949H102.489V34.8353H101.621V36.8417C101.612 36.9886 101.643 37.1352 101.711 37.2659C101.754 37.3173 101.81 37.357 101.873 37.3812C101.936 37.4054 102.004 37.4135 102.071 37.4045C102.147 37.4126 102.224 37.4126 102.301 37.4045C102.366 37.394 102.429 37.3748 102.489 37.3474V37.8042C102.412 37.8318 102.332 37.8509 102.251 37.8613L101.981 37.8205Z" fill="#3086C7"/>
<path d="M104.308 33.8322V33.302H104.824V33.8322H104.308ZM104.308 37.7635V34.3949H104.824V37.7308L104.308 37.7635Z" fill="#3086C7"/>
<path d="M108.24 37.8614C108.023 37.8786 107.806 37.8455 107.604 37.7649C107.402 37.6842 107.222 37.5581 107.077 37.3965C106.802 37.0244 106.666 36.5689 106.692 36.1079C106.656 35.6381 106.8 35.1722 107.093 34.8028C107.24 34.6523 107.418 34.535 107.614 34.459C107.811 34.3829 108.022 34.35 108.232 34.3624C108.542 34.351 108.849 34.4273 109.117 34.5826C109.344 34.7287 109.519 34.9429 109.617 35.1943C109.734 35.4843 109.79 35.7953 109.78 36.1079C109.809 36.5717 109.666 37.03 109.379 37.3965C109.237 37.5547 109.061 37.6788 108.863 37.7593C108.666 37.8398 108.453 37.8748 108.24 37.8614ZM108.24 37.421C108.466 37.4359 108.691 37.3757 108.879 37.2497C109.036 37.1268 109.15 36.9587 109.207 36.7685C109.275 36.555 109.308 36.3319 109.305 36.1079C109.31 35.873 109.277 35.6389 109.207 35.4146C109.143 35.2345 109.026 35.078 108.871 34.966C108.682 34.8488 108.462 34.7919 108.24 34.8028C108.016 34.7928 107.794 34.8558 107.609 34.9823C107.453 35.0986 107.339 35.2615 107.282 35.4472C107.213 35.6606 107.18 35.8838 107.183 36.1079C107.17 36.4419 107.252 36.7729 107.421 37.0621C107.514 37.186 107.638 37.2839 107.78 37.3468C107.921 37.4096 108.077 37.4352 108.232 37.421H108.24Z" fill="#3086C7"/>
<path d="M111.632 34.6885L111.96 34.5498C112.075 34.507 112.192 34.4716 112.312 34.4438C112.431 34.4168 112.551 34.3977 112.672 34.3867C112.798 34.3786 112.924 34.3786 113.049 34.3867C113.33 34.3678 113.612 34.4182 113.869 34.5335C114.053 34.6187 114.201 34.766 114.286 34.9495C114.379 35.1571 114.424 35.3829 114.417 35.6101V37.7879H113.934V35.6101C113.941 35.526 113.941 35.4414 113.934 35.3573C113.908 35.2666 113.867 35.181 113.811 35.1044C113.744 35.0138 113.654 34.9432 113.549 34.9005C113.391 34.846 113.224 34.8211 113.057 34.8271C112.916 34.8153 112.773 34.8153 112.631 34.8271C112.479 34.848 112.328 34.8808 112.181 34.925V37.7552H111.698L111.632 34.6885Z" fill="#3086C7"/>
<path d="M117.555 37.8612C117.404 37.8635 117.253 37.8498 117.105 37.8205C116.958 37.7868 116.817 37.7318 116.687 37.6573C116.559 37.5831 116.455 37.476 116.384 37.3474C116.307 37.1905 116.276 37.0153 116.293 36.8417C116.284 36.6079 116.341 36.3761 116.457 36.1729C116.555 36.0058 116.709 35.8787 116.891 35.814C117.095 35.7365 117.312 35.6978 117.531 35.6998C117.692 35.69 117.853 35.69 118.014 35.6998C118.134 35.7205 118.252 35.7533 118.366 35.7977C118.467 35.835 118.564 35.8843 118.653 35.9445L118.751 36.385C118.612 36.2965 118.46 36.2304 118.301 36.1892C118.093 36.132 117.877 36.1046 117.662 36.1077C117.432 36.0923 117.204 36.1463 117.006 36.2626C116.943 36.3133 116.89 36.3759 116.852 36.4469C116.813 36.5179 116.788 36.5958 116.78 36.6762C116.772 36.7566 116.779 36.8378 116.803 36.9152C116.826 36.9926 116.865 37.0647 116.916 37.1272C117.012 37.2284 117.134 37.3017 117.268 37.3392C117.41 37.3788 117.556 37.398 117.703 37.3963C117.926 37.4018 118.149 37.3799 118.366 37.3311C118.433 37.3174 118.492 37.28 118.533 37.2259C118.573 37.1718 118.593 37.1048 118.587 37.0375V35.5122C118.597 35.4058 118.581 35.2986 118.542 35.1993C118.502 35.1001 118.439 35.0117 118.358 34.9413C118.17 34.8089 117.941 34.7455 117.711 34.7619C117.517 34.7638 117.325 34.7884 117.137 34.8353C116.95 34.8797 116.774 34.9631 116.621 35.08V34.5987C116.795 34.4966 116.987 34.4275 117.186 34.3948C117.407 34.3474 117.632 34.3228 117.858 34.3214C117.996 34.3196 118.134 34.336 118.268 34.3704C118.388 34.3926 118.505 34.4339 118.612 34.4927C118.706 34.5477 118.79 34.6196 118.858 34.7048C118.93 34.795 118.985 34.8971 119.022 35.0066C119.063 35.1328 119.082 35.2653 119.079 35.398V37.0293C119.086 37.128 119.071 37.227 119.034 37.3188C118.997 37.4107 118.939 37.493 118.866 37.5595C118.707 37.6837 118.517 37.7626 118.317 37.7878C118.065 37.8313 117.811 37.8558 117.555 37.8612Z" fill="#3086C7"/>
<path d="M121.545 37.7636H121.062V33.1553H121.545V37.7636Z" fill="#3086C7"/>
<path d="M126.493 37.7635V33.302H127.042L129.836 37.2333L129.721 37.4209V33.302H130.221V37.7635H129.672L126.772 33.6853L126.993 33.4814V37.7635H126.493Z" fill="#3086C7"/>
<path d="M133.637 37.8613C133.352 37.8683 133.069 37.8008 132.818 37.6656C132.583 37.5302 132.397 37.3248 132.285 37.0783C132.149 36.7678 132.084 36.4303 132.097 36.0914C132.06 35.6254 132.201 35.1626 132.49 34.7946C132.627 34.6492 132.794 34.5353 132.979 34.4606C133.164 34.386 133.364 34.3524 133.563 34.3623C133.872 34.3475 134.177 34.4334 134.432 34.607C134.647 34.7718 134.81 34.9958 134.899 35.2513C134.995 35.5516 135.039 35.866 135.03 36.1811H132.335V35.7325H134.686L134.497 35.8059C134.505 35.5337 134.415 35.2675 134.243 35.0556C134.149 34.9667 134.036 34.8983 133.914 34.8548C133.791 34.8113 133.661 34.7935 133.531 34.8027C133.34 34.7961 133.151 34.8382 132.982 34.9251C132.826 35.0219 132.712 35.1731 132.662 35.3492C132.578 35.6127 132.539 35.8884 132.548 36.1648C132.526 36.4967 132.628 36.8247 132.834 37.0865C132.939 37.1963 133.067 37.2817 133.208 37.3367C133.35 37.3917 133.502 37.4149 133.654 37.4046C133.806 37.4179 133.96 37.4179 134.112 37.4046C134.244 37.3839 134.374 37.3483 134.497 37.2985C134.606 37.2611 134.711 37.2119 134.809 37.1517V37.6574C134.635 37.7339 134.454 37.7913 134.268 37.8287C134.059 37.8613 133.848 37.8723 133.637 37.8613Z" fill="#3086C7"/>
<path d="M137.93 37.8205C137.821 37.8254 137.711 37.8085 137.609 37.7707C137.506 37.7329 137.412 37.6749 137.332 37.6003C137.246 37.5172 137.18 37.4165 137.137 37.3052C137.095 37.1939 137.077 37.0747 137.086 36.9559V34.8679H136.505V34.3949H137.086V33.4487H137.594V34.3949H138.413V34.8353H137.594V36.8417C137.585 36.9886 137.616 37.1352 137.684 37.2659C137.726 37.3166 137.781 37.356 137.843 37.3802C137.904 37.4044 137.971 37.4128 138.037 37.4045C138.115 37.413 138.195 37.413 138.274 37.4045C138.339 37.394 138.403 37.3748 138.463 37.3474V37.8042C138.385 37.8308 138.306 37.8499 138.225 37.8613L137.93 37.8205Z" fill="#3086C7"/>
<path d="M141.068 37.7636L139.954 34.395H140.462L141.396 37.372L141.273 37.421L142.157 34.395H142.624L143.517 37.3476H143.419L144.353 34.395H144.836L143.714 37.7309H143.222L142.329 34.7702L142.42 34.8518L141.6 37.7309L141.068 37.7636Z" fill="#3086C7"/>
<path d="M147.761 37.8613C147.543 37.8785 147.324 37.8455 147.121 37.7649C146.918 37.6843 146.736 37.5582 146.59 37.3964C146.318 37.0233 146.185 36.5678 146.213 36.1078C146.173 35.6376 146.317 35.1702 146.614 34.8027C146.759 34.6515 146.935 34.5336 147.13 34.4575C147.326 34.3814 147.535 34.3489 147.745 34.3623C148.055 34.3481 148.363 34.4246 148.63 34.5825C148.859 34.7282 149.037 34.9422 149.138 35.1942C149.25 35.4856 149.306 35.7956 149.301 36.1078C149.326 36.5712 149.184 37.0281 148.9 37.3964C148.757 37.5537 148.581 37.6771 148.384 37.7576C148.186 37.838 147.974 37.8735 147.761 37.8613ZM147.761 37.4209C147.987 37.4334 148.211 37.3734 148.4 37.2496C148.557 37.1267 148.671 36.9586 148.728 36.7684C148.796 36.5549 148.829 36.3318 148.826 36.1078C148.833 35.8722 148.797 35.6373 148.72 35.4145C148.662 35.2334 148.547 35.0759 148.392 34.9659C148.203 34.8496 147.983 34.7928 147.761 34.8027C147.537 34.7915 147.315 34.8546 147.13 34.9822C146.974 35.0986 146.859 35.2614 146.803 35.4471C146.734 35.6605 146.701 35.8837 146.704 36.1078C146.691 36.4419 146.773 36.7728 146.942 37.062C147.034 37.1865 147.158 37.2849 147.3 37.3478C147.442 37.4107 147.598 37.4359 147.753 37.4209H147.761Z" fill="#3086C7"/>
<path d="M151.145 37.7635V34.6885L151.464 34.5744C151.62 34.5254 151.8 34.4765 152.021 34.4275C152.243 34.3848 152.468 34.363 152.693 34.3623H152.8H152.906V34.7946H152.57H152.251L151.939 34.8435L151.636 34.8925V37.7308L151.145 37.7635Z" fill="#3086C7"/>
<path d="M155.11 37.7636H154.626V33.1553H155.11V37.7636ZM155.241 35.6837L157.322 37.7636H156.675L154.913 36.0263L155.241 35.6837ZM155.003 35.7653L156.437 34.395H157.043L155.077 36.1241L155.003 35.7653Z" fill="#3086C7"/>
<path d="M161.926 37.7635V33.302H163.417C163.726 33.2844 164.035 33.3403 164.318 33.4651C164.516 33.5529 164.678 33.7055 164.777 33.8974C164.864 34.0869 164.909 34.2928 164.908 34.501C164.914 34.6554 164.883 34.809 164.818 34.9496C164.766 35.0503 164.694 35.1392 164.605 35.2106L164.368 35.4226L164.318 35.3329C164.451 35.3837 164.578 35.4493 164.695 35.5287C164.832 35.6296 164.946 35.7573 165.031 35.9039C165.135 36.0846 165.187 36.2909 165.179 36.4993C165.191 36.7557 165.122 37.0095 164.982 37.2252C164.844 37.4191 164.645 37.5624 164.417 37.633C164.137 37.7268 163.843 37.771 163.548 37.7635H161.926ZM162.409 35.235H163.524C163.667 35.2338 163.809 35.2202 163.95 35.1943C164.079 35.1634 164.196 35.0953 164.286 34.9985C164.387 34.8656 164.437 34.7003 164.425 34.5336C164.441 34.4175 164.425 34.2992 164.379 34.1915C164.333 34.0837 164.258 33.9905 164.163 33.9219C163.948 33.802 163.704 33.7454 163.458 33.7588H162.409V35.235ZM162.409 37.3149H163.589C163.771 37.317 163.953 37.2978 164.13 37.2578C164.288 37.2185 164.43 37.1334 164.54 37.0131C164.654 36.8576 164.709 36.6669 164.695 36.4748C164.716 36.3221 164.694 36.1666 164.63 36.0262C164.568 35.9232 164.477 35.8408 164.368 35.7897C164.25 35.739 164.126 35.706 163.999 35.6918C163.868 35.6837 163.737 35.6837 163.606 35.6918H162.45L162.409 37.3149Z" fill="#3086C7"/>
<path d="M168.464 37.8614C168.202 37.8682 167.942 37.8181 167.702 37.7146C167.501 37.6148 167.333 37.4589 167.218 37.266C167.104 37.0413 167.048 36.7919 167.055 36.5401V34.395H167.546V36.4015C167.523 36.6678 167.602 36.9329 167.767 37.1437C167.964 37.3026 168.21 37.3893 168.464 37.3893C168.717 37.3893 168.963 37.3026 169.16 37.1437C169.325 36.9329 169.404 36.6678 169.381 36.4015V34.395H169.873V36.5075C169.885 36.6873 169.858 36.8676 169.794 37.0363C169.731 37.205 169.632 37.3584 169.504 37.4862C169.22 37.7418 168.846 37.8764 168.464 37.8614Z" fill="#3086C7"/>
<path d="M172.822 37.8613C172.618 37.8639 172.415 37.842 172.216 37.796C172.042 37.7364 171.873 37.6656 171.708 37.584V37.0783L172.077 37.2659C172.18 37.3208 172.29 37.3619 172.404 37.3882C172.532 37.4014 172.661 37.4014 172.789 37.3882C172.983 37.3978 173.175 37.3465 173.338 37.2414C173.404 37.201 173.458 37.1445 173.495 37.0774C173.532 37.0103 173.552 36.9348 173.551 36.8581C173.555 36.8057 173.548 36.7531 173.529 36.7038C173.511 36.6546 173.482 36.6098 173.445 36.5726C173.37 36.5008 173.28 36.4452 173.183 36.4095L172.847 36.2627L172.454 36.1485C172.327 36.1088 172.206 36.054 172.093 35.9854C171.983 35.9181 171.89 35.8259 171.823 35.7162C171.752 35.5863 171.718 35.4397 171.724 35.2921C171.72 35.1394 171.754 34.9881 171.823 34.8516C171.893 34.7351 171.988 34.635 172.101 34.558C172.213 34.4751 172.342 34.4168 172.478 34.3867C172.614 34.3478 172.755 34.3285 172.896 34.3296C173.071 34.3292 173.245 34.3567 173.412 34.4112L173.854 34.5906V35.0719C173.707 34.9907 173.553 34.9198 173.396 34.8598C173.245 34.798 173.083 34.7675 172.92 34.7701C172.75 34.7674 172.581 34.8066 172.429 34.8843C172.363 34.9118 172.307 34.9583 172.267 35.0179C172.228 35.0775 172.207 35.1474 172.208 35.2187C172.204 35.2736 172.211 35.3287 172.229 35.3806C172.248 35.4326 172.277 35.4802 172.314 35.5205C172.398 35.5997 172.499 35.6584 172.609 35.6917C172.732 35.7325 172.863 35.7815 173.002 35.8141L173.347 35.9364C173.465 35.9759 173.578 36.0307 173.682 36.0995C173.788 36.1711 173.875 36.266 173.936 36.3768C174.007 36.5067 174.041 36.6533 174.035 36.801C174.044 37.0116 173.981 37.219 173.854 37.3882C173.736 37.5403 173.577 37.6561 173.396 37.7226C173.215 37.805 173.021 37.8521 172.822 37.8613Z" fill="#3086C7"/>
<path d="M175.894 33.8322V33.302H176.435V33.8322H175.894ZM175.894 37.7635V34.3949H176.378V37.7308L175.894 37.7635Z" fill="#3086C7"/>
<path d="M178.45 34.6885L178.778 34.5498C178.893 34.507 179.011 34.4716 179.13 34.4438C179.249 34.4168 179.37 34.3977 179.491 34.3867C179.616 34.3786 179.742 34.3786 179.868 34.3867C180.135 34.3744 180.402 34.4247 180.646 34.5335C180.83 34.6187 180.978 34.766 181.064 34.9495C181.157 35.1571 181.201 35.3829 181.195 35.6101V37.7879H180.712V35.6101C180.719 35.526 180.719 35.4414 180.712 35.3573C180.686 35.2666 180.644 35.181 180.589 35.1044C180.521 35.0116 180.427 34.9407 180.318 34.9005C180.164 34.8451 179.999 34.8202 179.835 34.8271C179.693 34.8153 179.551 34.8153 179.409 34.8271C179.256 34.848 179.106 34.8808 178.958 34.925V37.7552H178.475L178.45 34.6885Z" fill="#3086C7"/>
<path d="M184.603 37.8613C184.318 37.8682 184.035 37.8008 183.784 37.6655C183.544 37.5334 183.355 37.3273 183.243 37.0783C183.11 36.7665 183.046 36.43 183.055 36.0914C183.018 35.6253 183.159 35.1626 183.448 34.7945C183.586 34.649 183.754 34.535 183.941 34.4604C184.128 34.3858 184.328 34.3523 184.529 34.3623C184.836 34.3462 185.138 34.4323 185.39 34.6069C185.61 34.7674 185.773 34.9929 185.857 35.2513C185.956 35.5511 186.003 35.8655 185.996 36.1811H183.301V35.7325H185.644L185.455 35.8059C185.465 35.5346 185.378 35.2686 185.209 35.0555C185.115 34.9666 185.002 34.8983 184.88 34.8547C184.757 34.8112 184.627 34.7935 184.497 34.8027C184.306 34.7961 184.117 34.8382 183.948 34.925C183.789 35.0209 183.673 35.1721 183.62 35.3492C183.539 35.6131 183.503 35.8889 183.514 36.1648C183.492 36.4966 183.594 36.8247 183.8 37.0864C183.904 37.1972 184.032 37.2833 184.174 37.3383C184.315 37.3934 184.468 37.416 184.62 37.4045C184.772 37.4176 184.926 37.4176 185.078 37.4045C185.21 37.3828 185.339 37.3472 185.463 37.2985C185.57 37.2611 185.671 37.2119 185.767 37.1517V37.6574C185.596 37.735 185.418 37.7925 185.234 37.8287C185.025 37.8606 184.814 37.8715 184.603 37.8613Z" fill="#3086C7"/>
<path d="M188.781 37.8613C188.577 37.8639 188.374 37.842 188.175 37.796C188.001 37.7379 187.831 37.667 187.667 37.584V37.0783L188.036 37.2659C188.139 37.3208 188.249 37.3619 188.363 37.3882C188.491 37.4014 188.621 37.4014 188.749 37.3882C188.942 37.3978 189.134 37.3465 189.297 37.2414C189.363 37.201 189.417 37.1445 189.454 37.0774C189.491 37.0103 189.511 36.9348 189.51 36.8581C189.514 36.8057 189.507 36.7531 189.488 36.7038C189.47 36.6546 189.441 36.6098 189.404 36.5726C189.329 36.5008 189.24 36.4452 189.142 36.4095L188.806 36.2627L188.413 36.1485C188.284 36.1075 188.161 36.0528 188.044 35.9854C187.939 35.9146 187.85 35.823 187.782 35.7162C187.711 35.5863 187.677 35.4397 187.684 35.2921C187.679 35.1394 187.713 34.9881 187.782 34.8516C187.853 34.7351 187.948 34.635 188.06 34.558C188.172 34.4751 188.301 34.4168 188.437 34.3867C188.573 34.3478 188.714 34.3285 188.855 34.3296C189.03 34.3292 189.205 34.3567 189.371 34.4112L189.814 34.5906V35.0719C189.665 34.9922 189.512 34.9214 189.355 34.8598C189.204 34.798 189.042 34.7675 188.88 34.7701C188.706 34.7683 188.535 34.8075 188.38 34.8843C188.316 34.9139 188.262 34.9612 188.224 35.0204C188.186 35.0797 188.167 35.1485 188.167 35.2187C188.163 35.2736 188.17 35.3287 188.188 35.3806C188.207 35.4326 188.236 35.4802 188.273 35.5205C188.357 35.5997 188.458 35.6584 188.568 35.6917C188.691 35.7325 188.822 35.7815 188.962 35.8141L189.306 35.9364C189.424 35.9759 189.537 36.0307 189.642 36.0995C189.747 36.1711 189.834 36.266 189.895 36.3768C189.966 36.5067 190 36.6533 189.994 36.801C190.004 37.0116 189.94 37.219 189.814 37.3882C189.695 37.5403 189.536 37.6561 189.355 37.7226C189.174 37.805 188.98 37.8521 188.781 37.8613Z" fill="#3086C7"/>
<path d="M192.788 37.8614C192.584 37.864 192.38 37.8421 192.181 37.7962C192.008 37.7365 191.838 37.6657 191.673 37.5841V37.0784L192.042 37.266C192.148 37.321 192.261 37.3621 192.378 37.3884C192.503 37.4019 192.63 37.4019 192.755 37.3884C192.949 37.398 193.141 37.3466 193.304 37.2416C193.37 37.2024 193.425 37.1461 193.463 37.0787C193.5 37.0114 193.519 36.9352 193.517 36.8582C193.52 36.8058 193.513 36.7532 193.495 36.704C193.476 36.6547 193.447 36.61 193.41 36.5728C193.335 36.5009 193.246 36.4454 193.148 36.4096L192.812 36.2628L192.419 36.1486C192.293 36.109 192.171 36.0542 192.058 35.9855C191.948 35.9183 191.856 35.826 191.788 35.7163C191.682 35.5232 191.652 35.2979 191.704 35.084C191.755 34.87 191.884 34.6827 192.067 34.5582C192.192 34.4744 192.335 34.4188 192.484 34.395C192.62 34.3561 192.761 34.3368 192.902 34.3379C193.078 34.3375 193.252 34.365 193.418 34.4195L193.861 34.5989V35.0802C193.713 34.999 193.56 34.9281 193.402 34.8681C193.251 34.8063 193.09 34.7758 192.927 34.7784C192.756 34.7767 192.588 34.8158 192.435 34.8926C192.369 34.9201 192.313 34.9666 192.273 35.0262C192.234 35.0858 192.213 35.1557 192.214 35.227C192.209 35.2826 192.217 35.3386 192.237 35.3908C192.257 35.443 192.288 35.4901 192.329 35.5288C192.409 35.6079 192.507 35.6667 192.615 35.7C192.738 35.7408 192.869 35.7898 193.009 35.8224L193.361 35.9447C193.478 35.9875 193.591 36.0421 193.697 36.1079C193.797 36.1823 193.881 36.2767 193.943 36.3852C194.013 36.5151 194.047 36.6617 194.041 36.8093C194.051 37.0199 193.987 37.2273 193.861 37.3965C193.744 37.5502 193.584 37.6665 193.402 37.7309C193.208 37.8158 192.999 37.8602 192.788 37.8614Z" fill="#3086C7"/>
<path d="M81.4341 28.1392C78.4848 28.1392 76.2892 27.5846 74.8801 26.5079C73.4709 25.4313 72.7418 23.6206 72.7418 21.133V9.74683H78.3455V20.7986C78.2779 21.688 78.5022 22.5753 78.9846 23.327C79.2573 23.6201 79.5945 23.8462 79.9697 23.9877C80.345 24.1292 80.7481 24.1823 81.1474 24.1426C81.529 24.1631 81.9106 24.1007 82.2656 23.9599C82.6207 23.8191 82.9408 23.6031 83.2037 23.327C83.758 22.6051 84.0237 21.7042 83.9493 20.7986V9.74683H89.0205V21.1166C89.0816 22.5252 88.7407 23.9222 88.0373 25.1458C87.3994 26.1658 86.4569 26.9614 85.3419 27.4214C84.1002 27.917 82.7717 28.161 81.4341 28.1392Z" fill="#3086C7"/>
<path d="M92.3549 15.1136C92.7844 14.9045 93.2311 14.7326 93.6902 14.5998C94.2719 14.4122 94.9355 14.2409 95.6728 14.0778C96.4102 13.9147 97.1557 13.7842 97.9012 13.6781C98.574 13.5793 99.2529 13.5275 99.933 13.5232C100.98 13.5075 102.023 13.6449 103.03 13.931C103.863 14.1686 104.594 14.6731 105.111 15.3665C105.658 16.227 105.919 17.2373 105.856 18.2538V27.4704H100.998V19.4201C101.005 19.1092 100.955 18.7997 100.851 18.5066C100.769 18.2671 100.621 18.0552 100.425 17.8949C100.222 17.7357 99.9871 17.6216 99.7363 17.5605C99.4254 17.4849 99.106 17.4492 98.786 17.4545C98.4474 17.4547 98.1107 17.5041 97.7865 17.6013C97.4506 17.6992 97.2622 17.7889 97.213 17.8786V27.4704H92.3549V15.1136Z" fill="#3086C7"/>
<path d="M109.059 12.373V8.89844H114.024V12.373H109.059ZM109.117 27.4947V14.2082H113.975L114.024 27.4702L109.117 27.4947Z" fill="#3086C7"/>
<path d="M121.791 27.4703L116.162 13.9473H121.414L125.182 23.7348H123.978L127.1 13.9473H132.277L126.649 27.4703H121.791Z" fill="#3086C7"/>
<path d="M139.995 27.8699C138.701 27.9049 137.419 27.6249 136.259 27.0543C135.193 26.5 134.31 25.6501 133.719 24.6074C133.101 23.4985 132.79 22.2459 132.818 20.9779C132.695 18.96 133.348 16.9713 134.645 15.4153C135.331 14.7204 136.16 14.1813 137.075 13.835C137.99 13.4887 138.969 13.3433 139.945 13.4089C141.24 13.3512 142.522 13.6838 143.624 14.3632C144.62 15.0694 145.356 16.0805 145.721 17.2423C146.211 18.7925 146.432 20.4142 146.377 22.0382H136.259L135.62 19.1998H142.174L141.674 20.8311C141.726 19.796 141.567 18.7613 141.207 17.7888C141.058 17.5181 140.833 17.2967 140.559 17.1518C140.286 17.0069 139.975 16.9448 139.667 16.9732C139.312 16.9806 138.969 17.0974 138.684 17.3076C138.31 17.5709 138.024 17.9405 137.864 18.3679C137.645 18.9966 137.545 19.6603 137.569 20.3254C137.504 21.2794 137.796 22.2239 138.389 22.9762C138.767 23.3242 139.216 23.588 139.704 23.7497C140.193 23.9114 140.711 23.9675 141.223 23.9141C141.683 23.9103 142.14 23.8472 142.583 23.7265C143.027 23.6099 143.465 23.471 143.894 23.3106C144.296 23.1638 144.64 23.0496 144.902 22.9762V26.989C144.208 27.2457 143.496 27.4502 142.772 27.6008C141.858 27.788 140.927 27.8782 139.995 27.8699Z" fill="#3086C7"/>
<path d="M148.777 27.4703V15.5132C149.184 15.1509 149.65 14.8587 150.153 14.6487C150.861 14.3147 151.595 14.0418 152.349 13.833C153.132 13.6072 153.942 13.4892 154.758 13.4823C155.644 13.4568 156.53 13.539 157.396 13.727C157.899 13.8272 158.375 14.036 158.788 14.3387V17.7643C158.433 17.6727 158.072 17.6045 157.707 17.5604C157.232 17.5033 156.732 17.4626 156.2 17.4299C155.667 17.3973 155.167 17.3892 154.7 17.3892C154.344 17.3857 153.989 17.4048 153.635 17.4463V27.4621L148.777 27.4703Z" fill="#3086C7"/>
<path d="M164.63 27.8699C163.799 27.8813 162.972 27.7742 162.172 27.5518C161.476 27.3397 160.845 27.1358 160.296 26.9401V22.862C160.655 23.1425 161.039 23.3908 161.443 23.6042C161.962 23.8897 162.512 24.1168 163.081 24.2812C163.694 24.4717 164.332 24.568 164.974 24.5666C165.316 24.6127 165.663 24.5314 165.949 24.3382C166.073 24.205 166.143 24.0306 166.145 23.8489C166.137 23.7294 166.095 23.6147 166.024 23.5181C165.953 23.4214 165.856 23.3466 165.744 23.3024C165.415 23.1303 165.065 23.0014 164.703 22.919C164.277 22.813 163.827 22.7233 163.343 22.6499C162.939 22.5792 162.547 22.45 162.18 22.2666C161.79 22.062 161.442 21.7852 161.156 21.4509C160.838 21.0845 160.593 20.6609 160.435 20.203C160.248 19.6459 160.16 19.061 160.173 18.4739C160.143 17.6598 160.329 16.8523 160.714 16.133C161.064 15.5275 161.559 15.0176 162.156 14.6486C162.747 14.2721 163.398 13.9964 164.081 13.833C164.721 13.677 165.38 13.6057 166.039 13.6209C167.012 13.6324 167.98 13.7611 168.923 14.0043C169.551 14.1766 170.147 14.4523 170.684 14.8199V18.4086C170.119 18.0905 169.521 17.7643 168.882 17.4462C168.225 17.1237 167.5 16.9615 166.768 16.9731C166.308 16.919 165.842 17.0225 165.449 17.2668C165.358 17.3459 165.286 17.4439 165.238 17.5539C165.19 17.6639 165.167 17.783 165.17 17.903C165.165 18.0196 165.185 18.1361 165.229 18.2444C165.273 18.3528 165.339 18.4505 165.424 18.531C165.616 18.6985 165.843 18.8212 166.088 18.8899C166.367 18.9796 166.67 19.0693 167.006 19.159C167.341 19.2487 167.915 19.3792 168.382 19.5179C168.859 19.6485 169.31 19.858 169.717 20.1378C170.15 20.4409 170.5 20.8476 170.733 21.3204C171.015 21.9593 171.147 22.654 171.118 23.3513C171.14 24.3312 170.803 25.2855 170.168 26.0347C169.535 26.719 168.715 27.2039 167.808 27.4295C166.774 27.7215 165.705 27.8697 164.63 27.8699Z" fill="#3086C7"/>
<path d="M179.147 27.8699C178.297 27.8758 177.449 27.7965 176.615 27.6333C175.908 27.4826 175.234 27.2063 174.625 26.8177C174.064 26.448 173.616 25.9316 173.33 25.3251C173.007 24.5935 172.854 23.7992 172.88 23.0006C172.869 22.3108 173.033 21.6295 173.355 21.0186C173.713 20.3982 174.25 19.8984 174.895 19.5831C175.76 19.1906 176.706 19.0062 177.656 19.0448C178.228 19.045 178.797 19.1162 179.352 19.2569C179.895 19.3846 180.422 19.5706 180.925 19.8115C181.323 19.9865 181.682 20.2389 181.981 20.5537L182.063 22.552C181.731 22.3799 181.379 22.2484 181.015 22.1605C180.625 22.0687 180.227 22.0222 179.827 22.0218C179.265 21.9805 178.702 22.0785 178.188 22.3073C178.028 22.4029 177.897 22.5415 177.812 22.7073C177.726 22.8732 177.689 23.0596 177.705 23.2453C177.707 23.4706 177.779 23.6898 177.91 23.8733C178.046 24.0799 178.229 24.2528 178.442 24.379C178.663 24.5091 178.915 24.5768 179.171 24.5747C179.722 24.6065 180.274 24.557 180.81 24.4279C180.932 24.3915 181.037 24.3153 181.11 24.2118C181.183 24.1082 181.219 23.9832 181.211 23.857V19.42C181.237 19.1175 181.183 18.8135 181.054 18.5386C180.924 18.2637 180.724 18.0276 180.474 17.854C179.846 17.5002 179.13 17.3332 178.41 17.3728C177.568 17.3724 176.734 17.5301 175.952 17.8377C175.263 18.0831 174.621 18.4415 174.051 18.898V14.6975C174.713 14.326 175.425 14.0513 176.165 13.8819C177.317 13.599 178.501 13.4647 179.688 13.4822C180.023 13.4822 180.458 13.4822 180.982 13.5638C181.537 13.625 182.086 13.7369 182.621 13.8982C183.207 14.0809 183.76 14.3563 184.259 14.7138C184.778 15.0811 185.199 15.5681 185.488 16.133C185.825 16.8433 185.985 17.6238 185.955 18.4086V24.7052C185.96 25.0338 185.895 25.3598 185.766 25.6619C185.636 25.9641 185.443 26.2356 185.201 26.4588C184.566 27.0102 183.793 27.3819 182.965 27.5355C181.709 27.7931 180.428 27.9053 179.147 27.8699Z" fill="#3086C7"/>
<path d="M193.934 27.4703H189.134V8.87402H193.934V27.4703Z" fill="#3086C7"/>
</g>
<defs>
<clipPath id="clip0_4_162">
<rect width="194" height="38" fill="white"/>
</clipPath>
</defs>
</svg>
